# xmcd
#
# Track frame offsets: 
#        150
#        10998
#        23327
#        36155
#        48392
#        59671
#        71343
#        82408
#        93675
#        105026
#        116918
#        127787
#        137992
#        150072
#        162260
#        173205
#        184370
#        194726
#        206943
#        218560
#        229654
#        240114
#        250411
#        262332
#        272876
#        283012
#        295149
#        305323
#        316635
#        327486
#        338010
#
# Disc length: 4652 seconds
#
# Revision: 0
# Processed by: cddbd v1.5.2PL0 Copyright (c) Steve Scherf et al.
# Submitted via: ExactAudioCopyFreeDBPlugin 1.0
#
DISCID=c5122a1f
DTITLE=Jean Shepard - The Melody Ranch Girl - (1952-1964) - CD2
DYEAR=1996
DGENRE=Country
TTITLE0=You're Calling me Sweetheart Again
TTITLE1=He Loved me Once And He'll Love me Again
TTITLE2=Girls in Disgrace
TTITLE3=This Has Been Your Life
TTITLE4=Just Give me Love
TTITLE5=Thank You Just The Same
TTITLE6=Over And Over
TTITLE7=Tell me What I Want to Hear
TTITLE8=Shadows on The Wall
TTITLE9=I'll Thank You All my Life
TTITLE10=I Learned it All From You
TTITLE11=Hello Old Broken Heart
TTITLE12=Sad Singin' And Slow Ridin'
TTITLE13=It's Hard to Tell The Married From The Free
TTITLE14=Did I Turn Down a Better Deal
TTITLE15=A Passing Love Affair
TTITLE16=I Married You For Love
TTITLE17=I'm Thinking Tonight of my Blue Eyes
TTITLE18=Be Honest With Me
TTITLE19=Under Suspicion
TTITLE20=I Want to go Where no One Knows Me
TTITLE21=Tomorrow I'll be Gone
TTITLE22=If You Can Walk Away
TTITLE23=Go On, go On
TTITLE24=I Lost You After All
TTITLE25=It Scares me Half to Death
TTITLE26=You're Just The Kind of Guy
TTITLE27=Too Late With The Roses
TTITLE28=The Other Woman
TTITLE29=Act Like a Married Man
TTITLE30=I Used to Love You
EXTD=
EXTT0=
EXTT1=
EXTT2=
EXTT3=
EXTT4=
EXTT5=
EXTT6=
EXTT7=
EXTT8=
EXTT9=
EXTT10=
EXTT11=
EXTT12=
EXTT13=
EXTT14=
EXTT15=
EXTT16=
EXTT17=
EXTT18=
EXTT19=
EXTT20=
EXTT21=
EXTT22=
EXTT23=
EXTT24=
EXTT25=
EXTT26=
EXTT27=
EXTT28=
EXTT29=
EXTT30=
PLAYORDER=
